<svg xmlns="http://www.w3.org/2000/svg" width="400" height="400" fill-rule="evenodd" xmlns:v="https://vecta.io/nano"><path d="M184 .237l-7 .578-6.4.781c-.44.194-2.645.564-4.9.823s-4.1.598-4.1.754-1.66.504-3.688.774-3.784.643-3.9.828-1.607.562-3.312.836-3.1.621-3.1.77-1.215.509-2.7.798-2.88.662-3.1.829-1.435.532-2.7.811-2.3.64-2.3.8-.675.418-1.5.573-2.265.629-3.2 1.054-2.24.882-2.9 1.014-1.2.376-1.2.543-.81.506-1.8.755-1.8.602-1.8.784-.99.568-2.2.858-2.2.65-2.2.8-.72.51-1.6.8-1.6.659-1.6.82-.624.408-1.387.551-1.623.496-1.911.784-1.194.745-2.013 1.016-1.489.629-1.489.797-.72.521-1.6.785-1.6.618-1.6.788-.63.557-1.4.859-1.4.667-1.4.811-.711.495-1.579.782-1.664.742-1.768 1.013-.641.605-1.194.743-2.088.972-3.413 1.852S93.444 30 93.207 30s-.524.239-.636.532-.827.776-1.588 1.075-1.383.693-1.383.878-.45.506-1 .715-1 .531-1 .715-.623.58-1.383.878-1.476.783-1.588 1.075-.44.532-.728.532-.816.315-1.173.7-1.315 1.15-2.128 1.7-1.77 1.315-2.128 1.7-.873.7-1.147.7-.69.36-.925.8-.683.8-.994.8-.71.234-.886.521-1.129 1.141-2.119 1.9-2.034 1.694-2.322 2.079-.702.7-.919.7-1.361.99-2.543 2.2-2.276 2.2-2.433 2.2c-.373 0-11.784 11.411-11.784 11.784 0 .157-.99 1.252-2.2 2.433S48 68.943 48 69.16s-.315.63-.7.919-1.321 1.333-2.079 2.322-1.614 1.943-1.9 2.119-.521.574-.521.886-.36.759-.8.994-.8.652-.8.925-.315.79-.7 1.147-1.15 1.315-1.7 2.128-1.315 1.77-1.7 2.128-.7.885-.7 1.173-.239.616-.532.728-.776.827-1.075 1.588-.693 1.383-.878 1.383-.506.45-.715 1-.531 1-.715 1-.58.623-.878 1.383-.783 1.476-1.075 1.588-.532.398-.532.636-.72 1.515-1.599 2.839-1.713 2.86-1.852 3.413-.473 1.09-.743 1.194-.726.899-1.013 1.768-.639 1.579-.782 1.579-.509.63-.811 1.4-.688 1.4-.859 1.4-.525.72-.788 1.6-.617 1.6-.785 1.6-.527.67-.797 1.489-.728 1.725-1.016 2.013-.641 1.148-.784 1.911-.391 1.387-.551 1.387-.53.72-.82 1.6-.65 1.6-.8 1.6-.51.99-.8 2.2-.676 2.2-.858 2.2-.534.81-.784 1.8-.589 1.8-.755 1.8-.411.54-.543 1.2-.588 1.965-1.014 2.9-.9 2.375-1.054 3.2-.412 1.5-.573 1.5-.52 1.035-.8 2.3-.645 2.48-.811 2.7-.54 1.615-.829 3.1-.648 2.7-.798 2.7-.496 1.395-.77 3.1-.65 3.195-.836 3.312-.558 1.871-.828 3.9-.618 3.688-.774 3.688-.495 1.845-.754 4.1-.628 4.46-.821 4.9c-1.903 4.349-1.903 54.451 0 58.8.193.44.562 2.645.821 4.9s.598 4.1.754 4.1.504 1.66.774 3.688.643 3.784.828 3.9.562 1.607.836 3.312.621 3.1.77 3.1.509 1.215.798 2.7.662 2.88.829 3.1.532 1.435.811 2.7.64 2.3.8 2.3.418.675.573 1.5.629 2.265 1.054 3.2.882 2.24 1.014 2.9.376 1.2.543 1.2.506.81.755 1.8.602 1.8.784 1.8.568.99.858 2.2.65 2.2.8 2.2.51.72.8 1.6.659 1.6.82 1.6.408.624.551 1.387.496 1.623.784 1.911.745 1.194 1.016 2.013.629 1.489.797 1.489.521.72.785 1.6.618 1.6.788 1.6.557.63.859 1.4.667 1.4.811 1.4.495.711.782 1.579.742 1.664 1.013 1.768.605.641.743 1.194.972 2.088 1.852 3.413S30 306.556 30 306.793s.239.524.532.636.776.827 1.075 1.588.693 1.383.878 1.383.506.45.715 1 .531 1 .715 1 .58.623.878 1.383.783 1.476 1.075 1.588.532.44.532.728.315.816.7 1.173 1.15 1.315 1.7 2.128 1.315 1.77 1.7 2.128.7.82.7 1.027.267.663.592 1.011c1.341 1.434 2.765 3.115 3.756 4.434.578.77 1.367 1.635 1.752 1.923s.7.7.7.917.99 1.361 2.2 2.543 2.2 2.276 2.2 2.433c0 .373 11.411 11.784 11.784 11.784.157 0 1.252.99 2.433 2.2s2.326 2.2 2.543 2.2.63.315.919.7 1.333 1.321 2.322 2.079 1.943 1.614 2.119 1.9.574.521.886.521.759.36.994.8.652.8.925.8.79.315 1.147.7 1.315 1.15 2.128 1.7 1.77 1.315 2.128 1.7.885.7 1.173.7.616.239.728.532.827.776 1.588 1.075 1.383.693 1.383.878.45.506 1 .715 1 .531 1 .715.63.583 1.4.885 1.4.701 1.4.887.315.455.7.599c.663.246 1.353.671 4.06 2.496.638.431 1.615.897 2.171 1.036s1.095.473 1.198.74.925.73 1.828 1.028 1.643.66 1.643.803.63.509 1.4.811 1.4.688 1.4.859.72.525 1.6.788 1.6.617 1.6.785.67.527 1.489.797 1.725.728 2.013 1.016 1.148.641 1.911.784 1.387.391 1.387.551.72.53 1.6.82 1.6.65 1.6.8.99.51 2.2.8 2.2.676 2.2.858.81.534 1.8.784 1.8.589 1.8.755.54.411 1.2.543 1.965.588 2.9 1.014 2.375.9 3.2 1.054 1.5.412 1.5.573 1.035.52 2.3.8 2.48.645 2.7.811 1.615.54 3.1.829 2.7.648 2.7.798 1.395.496 3.1.77 3.195.65 3.312.836 1.871.558 3.9.828 3.688.618 3.688.774 1.845.495 4.1.754 4.46.628 4.9.821c2.036.891 12.704 1.398 29.4 1.398s27.364-.507 29.4-1.398c.44-.193 2.645-.562 4.9-.821s4.1-.598 4.1-.754 1.66-.504 3.688-.774 3.784-.643 3.9-.828 1.607-.562 3.312-.836 3.1-.621 3.1-.77 1.215-.509 2.7-.798 2.88-.662 3.1-.829 1.435-.532 2.7-.811 2.3-.64 2.3-.8.675-.418 1.5-.573 2.265-.629 3.2-1.054 2.24-.882 2.9-1.014 1.2-.376 1.2-.543.81-.506 1.8-.755 1.8-.602 1.8-.784.99-.568 2.2-.858 2.2-.65 2.2-.8.72-.51 1.6-.8 1.6-.659 1.6-.82.624-.408 1.387-.551 1.623-.496 1.911-.784 1.194-.745 2.013-1.016 1.489-.629 1.489-.797.72-.521 1.6-.785 1.6-.618 1.6-.788.63-.557 1.4-.859 1.4-.667 1.4-.811.739-.505 1.643-.803 1.726-.761 1.828-1.028.642-.6 1.198-.74 1.533-.605 2.171-1.036c2.707-1.825 3.397-2.25 4.06-2.496.385-.144.7-.413.7-.599s.63-.585 1.4-.887 1.4-.7 1.4-.885.45-.506 1-.715 1-.531 1-.715.63-.583 1.4-.885 1.4-.701 1.4-.887.315-.452.7-.591.97-.492 1.3-.785c1.604-1.425 3.158-2.537 3.544-2.537.235 0 .621-.36.856-.8s.632-.8.881-.8.737-.267 1.085-.592c1.434-1.341 3.115-2.765 4.434-3.756.77-.578 1.635-1.367 1.923-1.752s.7-.7.917-.7 1.361-.99 2.543-2.2 2.276-2.2 2.433-2.2 2.873-2.587 6.035-5.749 5.749-5.878 5.749-6.035.99-1.252 2.2-2.433 2.2-2.326 2.2-2.543.315-.63.7-.917 1.174-1.153 1.752-1.923c.991-1.319 2.415-3 3.756-4.434.325-.348.592-.837.592-1.085s.36-.646.8-.881.8-.621.8-.856c0-.407 1.31-2.209 2.602-3.578.329-.348.598-.849.598-1.112s.239-.571.532-.683.776-.827 1.075-1.588.693-1.383.878-1.383.506-.45.715-1 .531-1 .715-1 .58-.623.878-1.383.783-1.476 1.075-1.588.532-.397.532-.633.393-1.006.874-1.712c2.041-2.999 2.303-3.453 2.544-4.415.14-.556.473-1.095.74-1.198s.73-.925 1.028-1.828.66-1.643.803-1.643.509-.63.811-1.4.688-1.4.859-1.4.525-.72.788-1.6.617-1.6.785-1.6.527-.67.797-1.489.728-1.725 1.016-2.013.641-1.148.784-1.911.391-1.387.551-1.387.53-.72.82-1.6.65-1.6.8-1.6.51-.99.8-2.2.676-2.2.858-2.2.534-.81.784-1.8.589-1.8.755-1.8.411-.54.543-1.2.588-1.965 1.014-2.9.9-2.375 1.054-3.2.412-1.5.573-1.5.52-1.035.8-2.3.645-2.48.811-2.7.54-1.615.829-3.1.648-2.7.798-2.7.496-1.395.77-3.1.65-3.195.836-3.312.558-1.871.828-3.9.618-3.688.774-3.688.495-1.845.754-4.1.628-4.46.821-4.9c1.903-4.349 1.903-54.451 0-58.8-.193-.44-.562-2.645-.821-4.9s-.598-4.1-.754-4.1-.504-1.66-.774-3.688-.643-3.784-.828-3.9-.562-1.607-.836-3.312-.621-3.1-.77-3.1-.509-1.215-.798-2.7-.662-2.88-.829-3.1-.532-1.435-.811-2.7-.64-2.3-.8-2.3-.418-.675-.573-1.5-.629-2.265-1.054-3.2-.882-2.24-1.014-2.9-.376-1.2-.543-1.2-.506-.81-.755-1.8-.602-1.8-.784-1.8-.568-.99-.858-2.2-.65-2.2-.8-2.2-.51-.72-.8-1.6-.659-1.6-.82-1.6-.408-.624-.551-1.387-.496-1.623-.784-1.911-.745-1.194-1.016-2.013-.629-1.489-.797-1.489-.521-.72-.785-1.6-.618-1.6-.788-1.6-.557-.63-.859-1.4-.667-1.4-.811-1.4-.505-.739-.803-1.643-.761-1.726-1.028-1.828-.6-.642-.74-1.198-.605-1.533-1.036-2.171l-1.582-2.344c-.44-.651-.8-1.377-.8-1.612s-.239-.521-.532-.633-.776-.827-1.075-1.588-.693-1.383-.878-1.383-.506-.45-.715-1-.531-1-.715-1-.58-.623-.878-1.383-.783-1.476-1.075-1.588-.532-.44-.532-.728-.315-.816-.7-1.173-1.15-1.315-1.7-2.128-1.315-1.77-1.7-2.128-.7-.873-.7-1.147-.36-.69-.8-.925-.8-.683-.8-.994-.234-.71-.521-.886-1.141-1.129-1.9-2.119-1.694-2.034-2.079-2.322-.7-.702-.7-.919-.99-1.361-2.2-2.543-2.2-2.276-2.2-2.433c0-.373-11.411-11.784-11.784-11.784-.157 0-1.252-.99-2.433-2.2s-2.326-2.2-2.543-2.2-.63-.315-.917-.7-1.153-1.174-1.923-1.752c-1.319-.991-3-2.415-4.434-3.756-.348-.325-.803-.592-1.011-.592s-.67-.315-1.027-.7-1.315-1.15-2.128-1.7-1.77-1.315-2.128-1.7-.885-.7-1.173-.7-.616-.239-.728-.532-.827-.776-1.588-1.075-1.383-.693-1.383-.878-.45-.506-1-.715-1-.531-1-.715-.623-.58-1.383-.878-1.476-.783-1.588-1.075-.398-.532-.636-.532-1.515-.72-2.839-1.599-2.86-1.713-3.413-1.852-1.09-.473-1.194-.743-.899-.726-1.768-1.013-1.579-.639-1.579-.782-.63-.509-1.4-.811-1.4-.688-1.4-.859-.72-.525-1.6-.788-1.6-.617-1.6-.785-.67-.527-1.489-.797-1.725-.728-2.013-1.016-1.148-.641-1.911-.784-1.387-.391-1.387-.551-.72-.53-1.6-.82-1.6-.65-1.6-.8-.99-.51-2.2-.8-2.2-.676-2.2-.858-.81-.534-1.8-.784-1.8-.589-1.8-.755-.54-.411-1.2-.543-1.965-.588-2.9-1.014-2.375-.9-3.2-1.054-1.5-.412-1.5-.573-1.035-.52-2.3-.8-2.48-.645-2.7-.811-1.615-.54-3.1-.829-2.7-.648-2.7-.798-1.395-.496-3.1-.77-3.195-.65-3.312-.836-1.871-.558-3.9-.828-3.688-.618-3.688-.774-1.845-.495-4.1-.754-4.46-.626-4.9-.816C227.099.609 190.736-.486 184 .237m3.6 38.996c9.711.963 16.75 2.162 25 4.256l2.8.711.102 32.712-.4 32.851c-.276.077-2.212.445-4.302.819-11.272 2.016-20.761 9.75-24.748 20.169-1.089 2.845-1.586 4.793-2.363 9.249l-.314 1.8h-33.788H115.8l-.102-46.178.212-46.492c1.77-1.77 24.977-7.819 34.29-8.937l4.8-.647c7.262-1.053 23.566-1.209 32.6-.313m34.064 6.735L228 48.216c41.251 14.538 76.387 47.637 93.769 88.332 2.56 5.995 3.157 5.452-5.998 5.452-7.241 0-7.82.053-7.695.7.122.635.886.71 8.187.808 5.791.078 8.158.246 8.429.6.606.793 2.321 6.012 4.696 14.292 6.282 21.902 7.082 58.203 1.694 76.814l-.517 1.786h-40.349-40.349l-.283-1c-.155-.55-.485-2.313-.735-3.917-2.048-13.198-13-23.945-26.901-26.398l-4.148-.732v-14.576V175.8l2.411-.266c15.484-1.708 26.344-12.749 29.247-29.734l.342-2 10.781-.107c10.591-.105 11.388-.201 11.413-1.387.003-.161-4.974-.341-11.061-.4l-11.067-.106-.282-1c-.155-.55-.485-2.313-.735-3.917-1.991-12.828-12.683-23.633-25.888-26.164l-4.861-.965c-.395-.102-.5-6.907-.5-32.341V45.2h.964c.531 0 1.926.346 3.1.768M113.502 96.222L113.4 141.8l-5.092.112c-4.568.1-5.135.192-5.508.889-.401.749-.221.78 5.092.888l5.508.111.2 30.2c.198 29.867.209 30.2 1 30.2s.802-.333 1-30.2l.2-30.2h33.787 33.788l.31 1.8c2.994 17.394 13.571 28.198 29.304 29.934l2.411.266.105 14.511c.083 11.415-.003 14.54-.4 14.651-.278.077-2.215.446-4.305.82-11.272 2.016-20.761 9.75-24.748 20.169-1.089 2.846-1.587 4.794-2.363 9.249l-.314 1.8-17.688.104c-17.323.102-17.687.121-17.687.896s.364.794 17.687.896l17.688.104.31 1.8c2.991 17.38 13.583 28.199 29.304 29.934l2.411.266.102 42.709.102 42.709-.991.377c-2.256.858-12.283 2.906-19.613 4.007-8.474 1.272-25.034 1.874-31.8 1.155l-7.98-.748c-10.276-.886-25.084-4.244-35.82-8.124l-3.6-1.301-.103-24.492.215-24.492c.175 0 .992.805 1.815 1.79 7.786 9.315 23.397 2.82 22.155-9.219-1.178-11.415-15.948-15.584-22.707-6.408-1.535 2.083-1.552 1.994-1.673-8.363-.099-8.499-.129-8.8-.902-8.8-.794 0-.801.301-.902 39.3-.092 35.45-.164 39.3-.732 39.3-1.697 0-12.741-5.216-20.566-9.712-32.816-18.859-58.097-48.879-71.262-84.622-2.403-6.526-5.226-16.061-4.959-16.755.157-.409 6.651-.511 32.408-.511 31.946 0 32.213-.007 32.213-.8s-.267-.8-32.551-.8H15.697l-.411-1.1c-.547-1.463-1.942-9.054-2.444-13.3l-.916-7.4c-.666-5.189-.681-25.138-.022-30l.909-7.2c1.249-10.697 7.083-33.08 8.938-34.294.247-.162 9.86-.297 21.363-.3 20.789-.006 20.912-.011 20.486-.806-.419-.784-.838-.8-20.59-.8-13.403 0-20.248-.138-20.417-.412-.331-.535 4.432-11.244 7.719-17.352 17.268-32.098 44.301-57.191 77.451-71.893 2.873-1.274 5.362-2.178 5.532-2.008s.263 20.819.207 45.887M329.836 239.35c.471 1.228-4.272 16.153-7.636 24.028-15.937 37.312-45.636 67.759-82.4 84.476-7.207 3.277-19.637 7.746-21.545 7.746-.608 0-.651-3.25-.557-42.3l.102-42.3 2.411-.266c15.037-1.659 26.617-13.04 29-28.502.234-1.523.518-2.918.631-3.1.388-.628 79.753-.411 79.994.218" fill="#060504"/><path d="M162.395 39.636c-5.867.321-8.53.617-15.795 1.752-7.947 1.243-19.068 4.134-27.3 7.099l-3.3 1.189V95.44v45.765l33.473-.103 33.473-.102.526-3.2c2.364-14.382 14.274-26.527 27.476-28.017 1.129-.127 2.457-.314 2.952-.415l.9-.183V77.021 44.857l-2.138-.622c-3.225-.937-7.138-1.776-12.462-2.67-12.722-2.137-23.737-2.699-37.805-1.929m55.883 7.464c-.437 2.237-.223 61.687.223 61.963.237.146 1.885.483 3.664.75 14.037 2.103 26.297 14.734 27.653 28.488l.285 2.899h10.916c6.004 0 11.158.093 11.454.207.326.125.842-.359 1.312-1.231 4.003-7.432 15.583-10.922 23.956-7.219 4.12 1.822 9.059 6.528 9.059 8.631 0 .445.107.465.48.092.339-.339 2.684-.48 8-.48 4.136 0 7.52-.157 7.52-.348 0-1.075-6.609-14.83-9.922-20.652C294.452 87.824 264.017 62.102 229 49.31c-10.254-3.745-10.415-3.779-10.722-2.21m-109.507 5.451C74.806 67.46 47.259 93.223 30.023 126.2c-1.984 3.797-5.814 12.149-6.556 14.3-.228.66.867.7 19.372.7 12.07 0 19.896.151 20.348.393.683.366.678.277-.086-1.3-2.747-5.672-.665-15.31 4.5-20.831 13.147-14.053 36.467-5.038 36.57 14.138.019 3.599-.673 6.874-1.732 8.2-.621.777-.616.781.178.113.652-.548 1.78-.709 5.6-.8L113 141l.102-44.9c.096-42.579.065-44.899-.6-44.89-.386.006-2.065.609-3.731 1.341m198.445 90.095c-.009.245.33.886.753 1.423 2.614 3.323 1.397 13.432-2.18 18.119-10.975 14.377-32.469 8.777-35.008-9.121-.436-3.074.121-7.618 1.067-8.698.303-.348.547-.798.54-1s-.196-.054-.42.331c-.372.639-1.34.7-11.13.7h-10.723l-.261 2.812c-.965 10.383-8.345 20.637-18.43 25.608-3.601 1.774-5.596 2.377-11.419 3.451l-1.795.331-.104 13.685c-.119 15.605-.467 14.225 3.694 14.644 13.554 1.365 26.771 14.924 28.066 28.795l.25 2.674h39.918l40.159-.389c.374-.605 1.751-8.012 2.68-14.411 1.013-6.99 1.488-28.796.77-35.424-1.613-14.898-3.864-25.527-7.934-37.476l-1.465-4.3h-7.909-7.909l-.597-1.1c-.328-.605-.604-.899-.613-.654m-242.925 1.061c-.243.634-1.856.694-21.377.789L21.8 144.6l-1.096 3.2c-3.851 11.247-6.336 22.514-7.982 36.2-.593 4.924-.593 27.871-.001 32.8 1.002 8.344 2.831 18.885 3.37 19.424.099.099 14.64.183 32.313.186l32.578.375c.316.262.469-.179.526-1.507.643-15.076 15.021-29.536 30.019-30.194l1.873-.082-.2-30.201-.2-30.201-5.473-.111c-4.785-.097-5.495-.198-5.653-.8-.163-.621-.186-.617-.228.038-.276 4.324-9.885 10.47-17.138 10.962-7.84.531-18.211-4.943-19.612-10.352-.262-1.009-.403-1.156-.605-.63m51.614 30.993l-.105 30.304 1.8.117c23.673 1.535 37.648 28.89 25.483 49.879-7.042 12.15-22.649 18.607-36.732 15.197-13.392-3.243-24.377-16.251-24.825-29.397l-.048-1.4-32.345.105-32.346.104.247 1.096c7.463 33.153 29.585 65.879 60.611 89.664 9.159 7.021 34.418 20.747 35.364 19.216.112-.181.192-13.617.177-29.857l-.006-39.028.02-9.5h1.4 1.4v8.926 8.927l2.041-1.967c8.722-8.407 22.159-2.638 22.159 9.514 0 12.013-13.875 17.662-22.411 9.126l-1.795-1.796.103 23.707.103 23.706 4.6 1.569c27.842 9.496 63.45 11.387 88 4.674.77-.211 2.39-.62 3.6-.91l2.2-.526.102-42.229.102-42.228-3.255-.476c-14.113-2.064-25.519-13.259-27.934-27.417l-.682-4-17.566-.2-17.567-.2V238v-1.4l17.365-.085c9.55-.046 17.486-.226 17.635-.4s.474-1.685.722-3.36c2.046-13.826 14.36-26.274 27.478-27.777 1.1-.127 2.405-.311 2.9-.411l.9-.182v-13.993c0-7.695-.135-13.993-.3-13.994-14.183-.071-28.289-12.77-30.878-27.798l-.689-4-33.462-.102-33.461-.103-.105 30.305m133.95 67.7c-1.286 13.838-13.142 26.156-27.563 28.638-2.03.35-3.782.724-3.892.832-.336.33-.436 73.608-.107 78.602l.307 4.672 6.2-2.112c40.546-13.814 73.615-42.714 92.49-80.832l3.11-6.244c.741-1.416 4.773-11.965 5.793-15.156 1.657-5.182 3.007-9.945 3.007-10.606 0-.521-4.839-.594-39.543-.594h-39.542l-.26 2.8m24.064 9.368c14.768 3.168 21.084 20.306 11.682 31.7C273.679 297.915 251 289.854 251 271.17v-5.03l1.693-3.37c3.247-6.461 8.538-10.373 15.107-11.17 3.462-.419 3.367-.422 6.119.168m-76.279 22.883c8.263 3.252 10.525 14.651 4.174 21.035-7.353 7.391-20.158 3.364-21.772-6.848-1.616-10.221 7.993-17.967 17.598-14.187" fill="#eecf8d"/><path d="M81 112.663c-13.864 1.741-23.278 16.985-17.522 28.371.657 1.301 1.32 2.871 1.472 3.487.81 3.291 7.761 8.332 13.358 9.687 9.185 2.224 21.673-3.529 23.46-10.808.162-.66.523-1.47.802-1.8 1.75-2.066 2.131-9.607.72-14.217-2.862-9.347-12.803-15.912-22.29-14.72m205.238 18.96c-5.03.842-11.692 5.963-13.239 10.177-.404 1.1-.953 2.27-1.219 2.6-2.233 2.764-1.214 12.073 1.843 16.836 9.857 15.361 33.275 10.123 35.583-7.959.375-2.937-.208-7.985-1.028-8.897-.306-.341-.827-1.385-1.157-2.319-2.551-7.231-11.9-11.926-20.783-10.438M111 205.091c-13.295 1.947-22.684 9.228-27.477 21.309-7.121 17.945 3.974 39.231 22.828 43.797 28.28 6.847 50.76-22.448 37.121-48.375-5.712-10.858-20.512-18.483-32.472-16.731M267.8 251.6c-6.569.797-11.86 4.709-15.107 11.17L251 266.14v5.03c0 18.684 22.679 26.745 34.601 12.298 9.402-11.394 3.086-28.532-11.682-31.7-2.752-.59-2.657-.587-6.119-.168m-78.306 22.411c-12.222 3.078-13.063 20.309-1.203 24.635 10.987 4.007 21.007-7.345 15.807-17.908-2.6-5.28-8.874-8.17-14.604-6.727" fill="#fbfbf9"/><path d="M168.433 38.953c.092.084 3.947.239 8.567.346l4-.1c-4.902-.327-12.825-.483-12.567-.246m-6.12.542c1.163.081 2.963.081 4-.002s.087-.148-2.113-.147-3.049.068-1.887.149m-5.813.392a8.9 8.9 0 0 0 2.2 0c.605-.092.11-.167-1.1-.167s-1.705.075-1.1.167m30.8 0a8.9 8.9 0 0 0 2.2 0c.605-.092.11-.167-1.1-.167s-1.705.075-1.1.167m8.369.885c.588.188 2.208.443 3.6.567 1.92.17 2.145.144.931-.108-2.575-.535-5.781-.86-4.531-.459M145.6 41.2c-1.999.421.052.438 2.4.02 1.624-.288 1.663-.32.4-.317a16.54 16.54 0 0 0-2.8.297m-8 1.6c-1.344.431.108.431 1.8 0 1.078-.274 1.098-.306.2-.313-.55-.004-1.45.137-2 .313m69 0c1.692.431 3.144.431 1.8 0-.55-.176-1.45-.317-2-.313-.898.007-.878.039.2.313M132 44.2c-.99.287-1.44.525-1 .53s1.52-.229 2.4-.519c2.071-.682.949-.691-1.4-.011m80.9.039l1.9.607V76.99c0 25.34-.106 32.186-.5 32.345-.299.121-.218.215.2.233.661.03.7-1.765.7-32.354 0-36.174.28-32.841-2.8-33.351-1.07-.177-.952-.089.5.376M126.4 45.8c-.77.297-1.13.539-.8.539s1.23-.242 2-.539 1.13-.539.8-.539-1.23.242-2 .539m91.654.9c.045.906.085.945.225.225.094-.482.474-.956.846-1.054.478-.126.413-.192-.225-.225-.738-.038-.89.151-.846 1.054m-96.654.686c-1.545.707-.826.717 1 .014.77-.297 1.13-.545.8-.552s-1.14.235-1.8.538m102.4-.031c.66.3 1.65.656 2.2.791.803.197.764.138-.2-.301-.66-.3-1.65-.656-2.2-.791-.803-.197-.764-.138.2.301M117 49.014c-1 .482-1.034.537-.2.334 1.133-.277 2.407-.927 1.8-.918-.22.003-.94.266-1.6.584M218.109 50c0 .99.078 1.395.173.9s.096-1.305 0-1.8-.173-.09-.173.9m10.091-1.045c.66.3 1.65.656 2.2.791.803.197.764.138-.2-.301-.66-.3-1.65-.656-2.2-.791-.803-.197-.764-.138.2.301M115.701 51.4c.004.88.086 1.193.182.695s.092-1.217-.008-1.6-.179.025-.174.905M232 50.333c.33.203 1.05.491 1.6.638.695.186.817.154.4-.104-.33-.203-1.05-.491-1.6-.638-.695-.186-.817-.154-.4.104m-120.2.688l-1.2.546 1.2-.24c1.287-.257 1.631-.431 1.367-.69-.092-.09-.707.083-1.367.384M239.6 53.6c.77.422 1.58.766 1.8.766s-.23-.344-1-.766-1.58-.766-1.8-.766.23.344 1 .766m-134.8.4c-.77.422-1.22.766-1 .766s1.03-.344 1.8-.766 1.22-.766 1-.766-1.03.344-1.8.766m10.993 43.2l.107 21.9V75.3c-.059-12.045-.107-2.19-.107 21.9M99.5 56.625c-1.925.981-3.5 1.873-3.5 1.983s1.62-.614 3.6-1.608 3.6-1.896 3.6-2.004c0-.27.187-.353-3.7 1.629m-6 3.204c-1.495.811-1.404 1.149.1.371.66-.341 1.2-.706 1.2-.81 0-.258-.043-.243-1.3.439m158.5-.05c0 .11.54.48 1.2.821s1.2.531 1.2.421-.54-.48-1.2-.821-1.2-.531-1.2-.421M88.5 62.796c-.715.436-1.3.879-1.3.985s.63-.18 1.4-.634 1.4-.898 1.4-.987c0-.255-.126-.202-1.5.636m168.5-.124c.588.588 8.6 5.741 8.6 5.531s-5.039-3.605-7.4-4.992c-.88-.516-1.42-.759-1.2-.539M85.3 64.846c-1.363.873-1.805 1.46-.6.797.918-.504 2.356-1.616 2.1-1.624-.11-.003-.785.369-1.5.827m-5.9 3.986c-2.373 1.794-2.692 2.3-.467.74 1.681-1.178 2.596-1.997 2.191-1.961-.068.006-.844.556-1.724 1.221m189.4 1.688c0 .106 1.63 1.481 3.622 3.054s5.008 4.058 6.7 5.519 2.719 2.246 2.279 1.742c-1.45-1.664-12.601-10.791-12.601-10.315M71.328 75.005c-2.019 1.639-3.793 3.176-3.941 3.416s1.549-1.041 3.772-2.846c3.533-2.87 4.354-3.612 3.941-3.563-.055.006-1.752 1.353-3.772 2.993M64.386 81.1L62.2 83.4l2.3-2.186c2.137-2.032 2.483-2.414 2.186-2.414-.062 0-1.097 1.035-2.3 2.3m222.622 5.3c2.636 2.75 4.874 4.948 4.974 4.884s-2.056-2.313-4.792-5l-4.974-4.884 4.792 5m-230.13 1.9c-2.63 2.805-5.367 5.82-6.081 6.7l-1.299 1.6 1.509-1.6 10.854-11.8c-.11 0-2.352 2.295-4.983 5.1m238.723 7.4c1.828 2.145 3.399 3.9 3.49 3.9.27 0-4.567-5.747-5.736-6.814-.594-.542.417.769 2.246 2.914m-248.642 4c-1.752 2.021-2.272 2.7-2.069 2.7.117 0 .877-.81 1.689-1.8 1.502-1.834 1.8-2.537.38-.9m253.441 1.9c.697.88 1.357 1.6 1.467 1.6s-.37-.72-1.067-1.6-1.357-1.6-1.467-1.6.37.72 1.067 1.6m-82.272 3.2c0 1.43.073 2.015.161 1.3s.089-1.885 0-2.6-.161-.13-.161 1.3m-175.235.1c-2.517 3.449-3.358 4.7-3.159 4.7.103 0 1.283-1.53 2.62-3.4s2.351-3.4 2.252-3.4-.87.945-1.713 2.1M304 106.4c.47.66.944 1.2 1.054 1.2s-.184-.54-.654-1.2-.944-1.2-1.054-1.2.184.54.654 1.2m-93.1 3.476c.385.1 1.015.1 1.4 0s.07-.183-.7-.183-1.085.082-.7.183m-3.1.524c-1.019.438.032.438 1.4 0 .804-.257.843-.323.2-.332-.44-.006-1.16.143-1.6.332m16.2 0c1.368.438 2.419.438 1.4 0-.44-.189-1.16-.338-1.6-.332-.643.009-.604.075.2.332m83.785 1.5c.617.935 1.198 1.7 1.291 1.7.288 0-1.243-2.434-1.844-2.931-.312-.258-.064.296.553 1.231m-270.264.8c-2.17 3.303-2.404 3.7-2.179 3.7.191 0 1.765-2.309 3.204-4.7.714-1.186-.129-.364-1.025 1m163.979.126c-1.265.653-2.3 1.277-2.3 1.386 0 .179 4.76-2.087 5.167-2.459.523-.48-.869.041-2.867 1.073m28.133-.674c.408.372 4.367 2.241 4.367 2.061 0-.225-3.82-2.213-4.253-2.213-.154 0-.205.068-.114.152m79.916 2.448c.216.44.685 1.16 1.044 1.6l.651.8-.393-.8c-.216-.44-.685-1.16-1.044-1.6l-.651-.8.393.8m-114.862 2.83c-1.478 1.227-2.687 2.318-2.687 2.424s1.26-.843 2.8-2.11c2.55-2.098 3.021-2.544 2.687-2.544-.062 0-1.322 1.004-2.8 2.23m43.6.179c.708.742 1.355 1.269 1.438 1.17s-.496-.706-1.287-1.35L237 116.258l1.287 1.351m73.513.791c.341.66.711 1.2.821 1.2s-.08-.54-.421-1.2-.711-1.2-.821-1.2.08.54.421 1.2m-277.892.1c-.875 1.349-1.66 2.956-1.221 2.5.561-.583 2.211-3.4 1.992-3.4-.103 0-.45.405-.771.9m207.473 2.246c.87.91 1.651 1.654 1.736 1.654.317 0-2.042-2.614-2.667-2.954-.357-.194.062.391.931 1.3m72.019.454c.341.66.711 1.2.821 1.2s-.08-.54-.421-1.2-.711-1.2-.821-1.2.08.54.421 1.2M31 123.6c-.341.66-.531 1.2-.421 1.2s.48-.54.821-1.2.531-1.2.421-1.2-.48.54-.821 1.2m213.407.923c.695 1.058 1.793 3.038 2.44 4.4s1.06 2.027.919 1.477c-.379-1.475-2.422-5.223-3.598-6.6-.788-.922-.732-.755.239.723m72.879 4.06c1.365 2.74 2.545 4.919 2.622 4.842.177-.177-4.644-9.825-4.909-9.825-.107 0 .922 2.242 2.287 4.983m-287.708-2.285c-.904 1.803-.891 1.981.042.585.484-.724.797-1.4.695-1.501s-.434.31-.737.916m-3.306 6.721c-.94 1.97-.808 2.305.175.443.446-.846.74-1.608.654-1.695s-.46.477-.829 1.252m222.157-.219c.003.11.267 1.19.587 2.4.551 2.081.571 2.104.369.438-.166-1.366-.978-3.778-.956-2.838m71.605 1.4c0 .22.344 1.03.766 1.8s.766 1.22.766 1-.344-1.03-.766-1.8-.766-1.22-.766-1m-295.362 2.419c-.94 1.97-.808 2.305.175.443.446-.846.74-1.608.654-1.695s-.46.477-.829 1.252M183.17 139.4L183 141l-33.6.203-33.6.204 33.692.096 33.693.097.241-.959a5.49 5.49 0 0 0 .077-1.9c-.115-.663-.214-.469-.333.659m66.531 0c.004.88.086 1.193.182.695s.092-1.217-.008-1.6-.179.025-.174.905m-226.455.639c-.245.704-.446 1.344-.446 1.421s9.045.097 20.1.044l20.1-.096-19.889-.108-19.888-.107.4-1.052c.219-.579.325-1.126.234-1.217s-.365.411-.611 1.115m299.554.752c0 .238-3.009.434-7.667.5-5.824.083-7.692.232-7.77.619-.057.281-.012.326.1.1.129-.259 3.065-.41 7.97-.41 6.637 0 7.767-.087 7.767-.6 0-.33-.09-.6-.2-.6s-.2.176-.2.391m-214.583.308c-4.768.127-6.217.559-6.217 1.852 0 .235.28.027.623-.462.586-.838.91-.889 5.6-.889 3.051 0 4.977-.155 4.977-.4 0-.22-.045-.361-.1-.314s-2.252.143-4.883.213m145.583.383c10.011.283 18.909.292 18.739.018-.102-.165-5.261-.262-11.463-.216s-9.476.136-7.276.198M43.237 143.9c-20.869.107-22.059.185-22.025 1.449.007.248.196.136.42-.249.38-.653 1.828-.7 21.364-.7 13.54 0 21.044-.142 21.204-.4.136-.22.192-.357.124-.304s-9.558.145-21.087.204m58.762.179c.001.153 2.521.333 5.602.4s5.6-.005 5.6-.158-2.521-.333-5.602-.4-5.6.005-5.6.158M260.8 144l-11 .219 10.876.091c6.919.057 10.967-.056 11.124-.31.136-.22.192-.359.124-.31s-5.074.189-11.124.31m47.548.109c.17.169 3.896.259 8.281.199l7.971-.11-8.281-.199c-4.554-.109-8.141-.06-7.971.11m-158.948.288l33.6.203.243 1.6c.222 1.457.249 1.487.3.333.124-2.759 3.136-2.543-34.086-2.436l-33.657.096 33.6.204M115.79 173l.11 14.329v-28.4c-.061-7.881-.11-1.549-.11 14.071m133.919-26.6c0 .99.078 1.395.173.9s.096-1.305 0-1.8-.173-.09-.173.9m74.92-.8c.147.55.435 1.27.638 1.6.258.417.29.295.104-.4-.147-.55-.435-1.27-.638-1.6-.258-.417-.29-.295-.104.4m-75.689 4.812c-.249 1.204-.394 2.251-.323 2.328.232.25 1.034-3.179.903-3.858-.069-.361-.33.327-.58 1.53m-64.913.428c-.031.737.797 3.269 1.002 3.064.075-.075-.114-.939-.42-1.92s-.568-1.496-.582-1.144m-165.734 3.453c-.351 1.262-.571 2.362-.489 2.444s.446-.874.809-2.124.584-2.349.49-2.443-.458.861-.81 2.123m167.307 1.454c0 .433 1.988 4.253 2.213 4.253.11 0-.274-.945-.854-2.1-1.116-2.221-1.359-2.606-1.359-2.153m60.682 2.064c-.59 1.204-.988 2.189-.884 2.189.269 0 2.286-4.049 2.107-4.229-.082-.082-.632.836-1.223 2.04M328.056 156c0 .33.155.96.344 1.4.217.504.344.578.344.2 0-.33-.155-.96-.344-1.4-.217-.504-.344-.578-.344-.2m-311.421 4.235c-.368 1.466-.595 2.739-.504 2.829s.466-1.034.834-2.499.595-2.739.504-2.829-.466 1.034-.834 2.499m312.828 1.165c.138.88.402 1.96.587 2.4.214.508.245.215.087-.8-.138-.88-.402-1.96-.587-2.4-.214-.508-.245-.215-.087.8m-85.242.024c-.369.563-1.682 2.228-2.918 3.7s-1.835 2.316-1.331 1.876c.872-.762 4.37-5.043 4.985-6.1.543-.936-.062-.504-.736.524m-53.2 3.145c1.64 2.047 5.601 5.501 7.743 6.754 2.065 1.207 1.382.486-1.064-1.123-1.265-.833-3.641-2.884-5.279-4.557-2.122-2.168-2.525-2.476-1.4-1.074M15 167.2c-.154.91-.196 1.738-.093 1.84s.306-.563.453-1.48.188-1.745.093-1.84-.299.57-.453 1.48m316.074 1.392c.134 1.096.391 2.446.571 3 .205.634.235.268.081-.984-.134-1.096-.391-2.446-.571-3-.205-.634-.235-.268-.081.984m-93.27-.197c-.396.438-1.594 1.357-2.662 2.042-2.152 1.381-2.654 2.021-.695.886 1.328-.77 4.715-3.679 4.315-3.707-.131-.009-.562.342-.958.779m-37.404 3.801c0 .274 2.449 1.488 2.632 1.305.087-.087-.47-.457-1.237-.823s-1.395-.583-1.395-.482M13.693 174.8c0 .77.082 1.085.183.7s.1-1.015 0-1.4-.183-.07-.183.7m193.707.4c.44.189 1.16.338 1.6.332.643-.009.604-.075-.2-.332-1.368-.438-2.419-.438-1.4 0m125.093 1.2c0 .77.082 1.085.183.7s.1-1.015 0-1.4-.183-.07-.183.7m-118.593-.118l.9.174v13.938c0 10.777-.113 13.985-.5 14.141-.299.121-.218.215.2.233.654.03.7-.908.7-14.368V176l-1.1.054c-.943.047-.972.08-.2.228m4.1.063c0 .189.45.258 1 .153s1-.26 1-.345-.45-.153-1-.153-1 .155-1 .345M13.301 177.8c.004.88.086 1.193.182.695s.092-1.217-.008-1.6-.179.025-.174.905m319.546 1.633c.026.862.192 2.107.368 2.767.203.756.239.238.1-1.4-.248-2.914-.54-3.769-.468-1.367M12.493 184.4c0 .77.082 1.085.183.7s.1-1.015 0-1.4-.183-.07-.183.7m-.351 5.4c-.001 1.98.066 2.84.15 1.912s.085-2.548.003-3.6-.152-.292-.153 1.688m322.034 10.8c0 6.16.056 8.624.123 5.476a307.45 307.45 0 0 0 0-11.2c-.068-3.012-.123-.436-.123 5.724m-322.529-.567c.026 3.612.176 8.367.334 10.567.16 2.225.204-.614.098-6.4l-.335-10.567c-.079-.091-.123 2.789-.097 6.4m104.013 3.312c-.057 1.474-.115 1.538-1.239 1.373-.648-.095-1.088-.026-.976.154.878 1.421 2.728-.046 2.445-1.938-.139-.925-.181-.849-.23.411m95.24 1.731c.385.1 1.015.1 1.4 0s.07-.183-.7-.183-1.085.082-.7.183m10 0c.385.1 1.015.1 1.4 0s.07-.183-.7-.183-1.085.082-.7.183m-13.1.524c-1.019.438.032.438 1.4 0 .804-.257.843-.323.2-.332-.44-.006-1.16.143-1.6.332m16.2 0c1.368.438 2.419.438 1.4 0-.44-.189-1.16-.338-1.6-.332-.643.009-.604.075.2.332m3.6.885c.367.339 5.6 2.676 5.6 2.501 0-.239-3.578-2.016-4.8-2.384-.55-.166-.91-.218-.8-.117m-25.7 1.341c-1.045.544-1.9 1.079-1.9 1.188 0 .179 3.96-1.691 4.367-2.062.495-.451-.806.01-2.467.874m-4.505 2.744a40.2 40.2 0 0 0-3.795 3.044l-1.8 1.674 2.2-1.78c1.21-.979 2.965-2.283 3.9-2.897 1.481-.973 1.976-1.411 1.595-1.411-.058 0-1.003.617-2.1 1.37m36.205-1.246c0 .093.765.674 1.7 1.291s1.489.865 1.231.553c-.497-.601-2.931-2.132-2.931-1.844m4.981 3.799c.87.922 1.629 1.677 1.688 1.677.409 0-.582-1.195-1.804-2.177L237 211.446l1.581 1.677m2.533 2.281c.227.443.834 1.162 1.349 1.598.904.764.902.75-.057-.405-1.593-1.918-1.727-2.042-1.292-1.193m92.179 2.996c0 .77.082 1.085.183.7s.1-1.015 0-1.4-.183-.07-.183.7m-89.108 1.1c.617.935 1.198 1.7 1.291 1.7.288 0-1.243-2.434-1.844-2.931-.312-.258-.064.296.553 1.231m88.724 2.1c0 .99.078 1.395.173.9s.096-1.305 0-1.8-.173-.09-.173.9M13.301 223c.004.88.086 1.193.182.695s.092-1.217-.008-1.6-.179.025-.174.905m233.966 2.22c.234.672.5 1.147.59 1.056.199-.198-.556-2.276-.826-2.276-.104 0 .002.549.236 1.22M13.693 226c0 .77.082 1.085.183.7s.1-1.015 0-1.4-.183-.07-.183.7m235.369 4.6c.134.88.31 1.675.391 1.767.303.343.076-1.799-.272-2.567-.252-.558-.288-.315-.119.8M15.05 233.4c.428 3.734-1.504 3.413 19.864 3.304l18.886-.096-18.893-.108-18.894-.108-.208-.896c-.946-4.07-.998-4.214-.755-2.096m234.659 1c0 .99.078 1.395.173.9s.096-1.305 0-1.8-.173-.09-.173.9m-66.455.02c-.029.781-.27 1.636-.534 1.9-.365.365-.367.48-.008.48.584 0 1.016-1.594.776-2.859-.127-.669-.195-.53-.234.479m147.035 1.162c-.212.811-.364.815-40.351.918l-40.138.104 40.273.098 40.273.098.264-.83c.144-.457.179-.914.077-1.016s-.281.181-.398.628M67.8 236.792L81 237l.127 1.1.126 1.1H49.05l-32.409.334c-.114.184-.034.859.176 1.5l.384 1.166-.19-1.298-.19-1.297 32.289-.103 32.29-.102.131-.922c.293-2.072.201-2.085-13.88-1.986l-13.051.092 13.2.208m80.052-.076c-.108.174.466.251 1.276.171 2.214-.218 2.477-.42.596-.455-.922-.018-1.765.11-1.872.284m11.274-.016c4.25.064 11.09.064 15.2-.001s.634-.118-7.726-.118-11.723.054-7.474.119m-11.191 2.596c.163.162 8.119.342 17.681.4L183 239.8l.243 1.6.243 1.6.051-1.4c.09-2.497.99-2.374-18.236-2.492-9.714-.059-17.528.025-17.366.188m141.537.204l39.673.104.173.898c.148.768.181.738.228-.202l.054-1.1-39.9.098-39.9.098 39.672.104m-39.763 2.1c0 .99.078 1.395.173.9s.096-1.305 0-1.8-.173-.09-.173.9m78.324 3.033c-.258 1.026-.394 1.939-.302 2.031s.378-.672.636-1.697.394-1.939.302-2.031-.378.672-.636 1.697m-79.093.979c-.249 1.204-.394 2.251-.323 2.328.232.25 1.034-3.179.903-3.858-.069-.361-.33.327-.58 1.53m-64.918.417c-.026.738 1.204 4.478 1.406 4.277.075-.076-.205-1.211-.624-2.522s-.771-2.101-.782-1.755m1.578 4.918c0 .433 1.988 4.253 2.213 4.253.11 0-.274-.945-.854-2.1-1.116-2.221-1.359-2.606-1.359-2.153m61.6.096c0 .207-.817 1.812-1.817 3.567s-1.554 2.92-1.234 2.59c.914-.942 3.574-6.011 3.298-6.286-.136-.136-.247-.078-.247.129m76.044 7.801c-.246.707-.378 1.356-.292 1.441s.357-.423.604-1.129.378-1.356.292-1.441-.357.423-.604 1.129m-132.404.76c1.565 1.952 5.924 5.762 7.916 6.919 2.062 1.197 1.401.493-1.056-1.124-1.265-.833-3.65-2.881-5.3-4.553-1.787-1.81-2.418-2.312-1.56-1.242m50.343.896c-1.176 1.375-1.635 2.05-1.021 1.5 1.173-1.05 3.63-4 3.332-4-.096 0-1.136 1.125-2.311 2.5m80.882 1.317c-.67 1.471-.542 1.785.182.448.339-.625.541-1.211.449-1.302s-.375.293-.631.854m-298.037.783c0 .22.258.85.572 1.4s.572.82.572.6-.258-.85-.572-1.4-.572-.82-.572-.6m295.772 4.461c-.336.804-.518 1.554-.405 1.667s.205.107.205-.012.272-.87.605-1.667.516-1.449.406-1.449-.475.658-.811 1.461M25.628 266.2c0 .22.258.85.572 1.4s.572.82.572.6-.258-.85-.572-1.4-.572-.82-.572-.6m181.772 4.2c.44.189 1.16.338 1.6.332.643-.009.604-.075-.2-.332-1.368-.438-2.419-.438-1.4 0m-179.791.144c-.012.466 2.475 5.106 2.645 4.935.075-.074-.488-1.293-1.25-2.707s-1.39-2.417-1.395-2.228m186.295.944l.903.166-.103 42.373.198 42.373c.166 0 .256-19.125.2-42.5L215 271.4l-1-.039c-.877-.033-.889-.018-.096.127m4.142.612c.033.638.099.703.225.225.098-.372.572-.752 1.054-.846.72-.14.681-.18-.225-.225s-1.092.108-1.054.846m-102.306 5.5c0 1.87.069 2.635.153 1.7a22.97 22.97 0 0 0 0-3.4c-.084-.935-.153-.17-.153 1.7m199.46-1.2c-.449.88-.726 1.6-.616 1.6s.567-.72 1.016-1.6.726-1.6.616-1.6-.567.72-1.016 1.6m-284 1.2c.449.88.906 1.6 1.016 1.6s-.167-.72-.616-1.6-.906-1.6-1.016-1.6.167.72.616 1.6m282 2.4c-.449.88-.726 1.6-.616 1.6s.567-.72 1.016-1.6.726-1.6.616-1.6-.567.72-1.016 1.6m-280.2.8c.341.66.711 1.2.821 1.2s-.08-.54-.421-1.2-.711-1.2-.821-1.2.08.54.421 1.2m278.552 2.1c-.262.495-.737 1.35-1.056 1.9-.557.959-.553.967.092.2.798-.948 1.917-3 1.636-3-.108 0-.41.405-.672.9m-185.652.589c.715.089 1.885.089 2.6 0s.13-.161-1.3-.161-2.015.073-1.3.161m-5 1.307c-1.806 1.101-1.637 1.37.2.318 1.848-1.058 1.923-1.114 1.467-1.113-.202.001-.952.359-1.667.795M35.549 285c.216.44.685 1.16 1.044 1.6l.651.8-.393-.8c-.216-.44-.685-1.16-1.044-1.6l-.651-.8.393.8m99.051.657c.66.504 1.808 1.552 2.551 2.33 1.061 1.11 1.204 1.182.67.338-.646-1.021-2.517-2.628-3.821-3.283-.33-.166-.06.111.6.615m-17.153 1.944c-.796.881-1.447 1.727-1.447 1.88s.135.108.301-.101.921-1.055 1.679-1.88 1.273-1.5 1.145-1.5-.883.721-1.678 1.601m189.036 3.222c-1.805 2.653-3.119 4.723-2.921 4.601.546-.338 6.662-9.424 6.343-9.424-.078 0-1.618 2.17-3.422 4.823M37.412 288c1.269 2.312 9.044 12.94 9.813 13.416.234.144-.726-1.24-2.133-3.077a185.55 185.55 0 0 1-4.882-6.739c-2.223-3.252-3.531-4.936-2.798-3.6m261.851 12.629c-2.024 2.546-3.486 4.509-3.249 4.362s1.8-2.004 3.474-4.128c3.952-5.014 3.839-4.863 3.632-4.863-.098 0-1.834 2.083-3.857 4.629m-160.194 1.157c-.402.974-1.471 2.636-2.376 3.693-1.56 1.822-1.571 1.852-.213.585 1.481-1.381 3.679-4.992 3.45-5.667-.071-.21-.459.414-.861 1.389m-23.058 1.683c.014.435 1.966 2.606 3.009 3.348l.819.583-.819-.807c-.451-.444-1.315-1.402-1.92-2.13s-1.095-1.176-1.089-.994m172.189 9.502c-3.96 4.028-9.225 8.997-11.7 11.041s-4.5 3.806-4.5 3.914.315-.068.7-.393l4.492-3.762c5.627-4.704 19.393-18.318 18.351-18.147-.079.012-3.383 3.319-7.343 7.347M52.8 308.2c.746.77 1.447 1.4 1.557 1.4s-.411-.63-1.157-1.4-1.447-1.4-1.557-1.4.411.63 1.157 1.4m80.6-.307c-.66.364-2.01.884-3 1.157-1.222.337-1.479.503-.8.519.982.023 5.2-1.722 5.2-2.151 0-.292-.021-.285-1.4.475M115.786 329.4l.114 10.472v-21.2c-.063-5.76-.114-.932-.114 10.728m-54.828-12.9c3.319 3.245 6.186 5.9 6.371 5.9s-.714-.94-1.997-2.088-4.149-3.803-6.37-5.9-1.323-1.157 1.996 2.088M269.8 329.444l-1.6 1.432 1.7-1.272c1.463-1.094 1.991-1.621 1.6-1.598-.055.003-.82.65-1.7 1.438M76 329.311c0 .076.585.567 1.3 1.09.804.589 1.084.686.733.254-.533-.656-2.033-1.648-2.033-1.344m188.9 3.529c-.935.662-1.7 1.293-1.7 1.401s.81-.36 1.8-1.041 1.8-1.32 1.8-1.419c0-.276-.076-.233-1.9 1.059m-3.907 2.616c-2.041 1.353-2.761 2.067-1.167 1.158 1.404-.8 3.275-2.192 2.967-2.205-.114-.005-.924.466-1.8 1.047m-7.552 4.565c-5.001 2.904-6.406 3.865-3.53 2.414 2.429-1.224 8.489-4.83 8.489-5.05 0-.258.289-.411-4.959 2.636M89 338.196c.894.743 3.428 2.113 2.8 1.514-.22-.21-1.12-.786-2-1.28s-1.24-.6-.8-.234m3.4 1.983c0 .11.54.48 1.2.821s1.2.531 1.2.421-.54-.48-1.2-.821-1.2-.531-1.2-.421m3.6 2c0 .11.54.48 1.2.821s1.2.531 1.2.421-.54-.48-1.2-.821-1.2-.531-1.2-.421m149.6 2.221c-.77.422-1.256.774-1.08.783.424.022 2.68-1.151 2.68-1.393 0-.262-.023-.253-1.6.61m-139.6 3c.55.314 1.18.572 1.4.572s-.05-.258-.6-.572-1.18-.572-1.4-.572.05.258.6.572m132.8.2c-.77.422-1.22.766-1 .766s1.03-.344 1.8-.766 1.22-.766 1-.766-1.03.344-1.8.766m-128.442 1.637c.967.429 1.83.708 1.917.621.173-.172-2.91-1.476-3.383-1.43-.161.016.499.38 1.466.809M218.14 352c0 1.87.069 2.635.153 1.7a22.97 22.97 0 0 0 0-3.4c-.084-.935-.153-.17-.153 1.7m-99.74.333c.33.203 1.05.491 1.6.638.695.186.817.154.4-.104-.33-.203-1.05-.491-1.6-.638-.695-.186-.817-.154-.4.104m107.8.281c-1 .482-1.034.537-.2.334 1.133-.277 2.407-.927 1.8-.918-.22.003-.94.266-1.6.584m-103.6 1.141c.66.3 1.65.656 2.2.791.803.197.764.138-.2-.301-.66-.3-1.65-.656-2.2-.791-.803-.197-.764-.138.2.301m99.2.245c-.504.217-.578.344-.2.344.33 0 .96-.155 1.4-.344.504-.217.578-.344.2-.344-.33 0-.96.155-1.4.344m-9.8 2.8c-.804.257-.843.323-.2.332.44.006 1.16-.143 1.6-.332 1.019-.438-.032-.438-1.4 0m-78 .4c.55.176 1.36.32 1.8.32.633 0 .592-.066-.2-.32-.55-.176-1.36-.32-1.8-.32-.633 0-.592.066.2.32m74.8.418c-.438.297-.276.334.6.138 1.471-.329 1.79-.558.767-.55a2.91 2.91 0 0 0-1.367.412m-6 1.182c-1.344.431.108.431 1.8 0 1.078-.274 1.098-.306.2-.313-.55-.004-1.45.137-2 .313m-52.895 1.483c.497.096 1.217.092 1.6-.008s-.025-.179-.905-.174-1.193.086-.695.182m44.8 0c.497.096 1.217.092 1.6-.008s-.025-.179-.905-.174-1.193.086-.695.182m-41.805.393c.385.1 1.015.1 1.4 0s.07-.183-.7-.183-1.085.082-.7.183m38.2.006c.495.096 1.305.096 1.8 0s.09-.173-.9-.173-1.395.078-.9.173m-29.593.808c.719.089 1.799.087 2.4-.004s.013-.164-1.307-.162-1.812.077-1.093.166m20.598-.003c.609.092 1.509.09 2-.005s-.005-.171-1.105-.168-1.503.081-.895.173m-13.405.411a98.14 98.14 0 0 0 6.6 0c1.815-.075.33-.135-3.3-.135s-5.115.06-3.3.135" fill="#988765"/><path d="M169.891 38.689c.71.088 1.97.09 2.8.003s.249-.159-1.291-.161-2.219.069-1.509.158m-7.391.405a29.38 29.38 0 0 0 3.8 0c1.045-.082.19-.15-1.9-.15s-2.945.068-1.9.15m17.413.001c1.163.081 2.963.081 4-.002s.087-.148-2.113-.147-3.049.068-1.887.149m-23.008.392c.609.092 1.509.09 2-.005s-.005-.171-1.105-.168-1.503.081-.895.173m30.4 0c.609.092 1.509.09 2-.005s-.005-.171-1.105-.168-1.503.081-.895.173M147.7 40.676c.385.1 1.015.1 1.4 0s.07-.183-.7-.183-1.085.082-.7.183m49.405.007c.497.096 1.217.092 1.6-.008s-.025-.179-.905-.174-1.193.086-.695.182m17.555 3.587c.252.181.551.78.663 1.33.176.861.195.838.14-.169-.035-.66-.325-1.24-.663-1.331-.401-.107-.448-.051-.14.17m3.038 33.225c.09 28.371.175 32.299.702 32.338.345.025.387-.027.1-.124-.394-.132-.5-6.928-.5-32.191V45.495l1.3.219c.715.12 1.66.326 2.1.458s.26-.025-.4-.348-1.696-.596-2.302-.606l-1.103-.018.103 32.295M224.8 47.4c1.826.703 2.545.693 1-.014-.66-.303-1.47-.544-1.8-.538s.03.255.8.552M113.103 95.82l.104 45.78h-4.981c-4.652 0-5.021.057-5.587.865-.973 1.39-.483 1.535 5.185 1.535h5.376v29.767l.243 30.4c.246.643 2.157.909 2.157.301 0-.182-.405-.317-.9-.3l-.9.032-.2-30.2-.2-30.2-5.508-.111c-5.313-.108-5.493-.139-5.092-.888.373-.697.94-.789 5.508-.889l5.092-.112.102-45.578-.2-45.88c-.166-.166-.255 20.299-.199 45.478M215.389 78.8l.111 14.1V64.7c-.061-7.755-.111-1.41-.111 14.1M239.2 53c.55.314 1.18.572 1.4.572s-.05-.258-.6-.572-1.18-.572-1.4-.572.05.258.6.572m-134.8.8c-.55.314-.82.572-.6.572s.85-.258 1.4-.572.82-.572.6-.572-.85.258-1.4.572m-4.9 2.425c-1.485.762-2.7 1.476-2.7 1.586s1.26-.435 2.8-1.211 2.8-1.498 2.8-1.605c0-.268.112-.316-2.9 1.23m-7 3.787c-1.155.662-2.1 1.298-2.1 1.413 0 .218 3.521-1.711 4.18-2.291.701-.616.035-.335-2.08.878m159.5-.633c0 .11.54.48 1.2.821s1.2.531 1.2.421-.54-.48-1.2-.821-1.2-.531-1.2-.421m2.8 1.6c0 .11.54.48 1.2.821s1.2.531 1.2.421-.54-.48-1.2-.821-1.2-.531-1.2-.421m-166.1 1.25c-1.495.811-1.404 1.149.1.371.66-.341 1.2-.706 1.2-.81 0-.258-.043-.243-1.3.439m169.674.895c.535.435 1.525 1.095 2.2 1.467l1.226.676-.974-.791c-.535-.435-1.525-1.095-2.2-1.467l-1.226-.676.974.791M79.8 68.235l-1.2 1.031 1.3-.86c.715-.473 1.3-.938 1.3-1.033 0-.3-.169-.195-1.4.862m187.4.69c0 .099.661.684 1.468 1.3s1.343.916 1.188.666c-.316-.512-2.656-2.244-2.656-1.966m-191.1 1.9c-1.155.886-2.1 1.699-2.1 1.806s.99-.553 2.2-1.466c1.91-1.442 2.491-1.984 2.1-1.958-.055.003-1.045.731-2.2 1.618m198.3 3.652c.33.338 2.04 1.823 3.8 3.3 2.141 1.796 2.526 2.04 1.162.737-1.916-1.832-6.257-5.364-4.962-4.037M65 79.878c-1.1 1.016-1.64 1.654-1.2 1.417.762-.409 3.753-3.312 3.378-3.279-.098.009-1.078.847-2.178 1.862M287.194 86.1c5.012 5.109 5.606 5.681 5.606 5.394 0-.058-2.475-2.533-5.5-5.5l-5.5-5.394 5.394 5.5m-228.802.2L54.6 90.2l3.9-3.792 3.9-3.9c0-.29-.486.17-4.008 3.792m-4.843 4.87c-.302.424-1.515 1.909-2.695 3.3L48.709 97l2.453-2.6c2.264-2.399 3.505-4 3.101-4-.091 0-.412.347-.714.77m242.274 4.23c3.191 3.803 4.451 5.1 2.563 2.638-.744-.97-2.229-2.68-3.3-3.8-1.303-1.364-1.059-.979.737 1.162M46.761 99.3l-2.299 2.8c-.322.385-.488.7-.369.7s1.235-1.26 2.479-2.8 2.181-2.8 2.082-2.8-.951.945-1.893 2.1m255.414 4.032c.616.807 1.201 1.468 1.3 1.468.278 0-1.454-2.34-1.966-2.656-.25-.155.05.38.666 1.188m-258.86.368c-1.734 2.267-2.649 3.62-2.306 3.413.472-.286 3.128-3.913 2.865-3.913-.097 0-.348.225-.559.5m171.931 4.772c-.033.775-.296 1.12-.946 1.246l-.9.173.913.055c.991.059 1.464-.679 1.167-1.823-.126-.485-.202-.37-.234.349m91.339 1.028c.617.935 1.198 1.7 1.291 1.7.288 0-1.243-2.434-1.844-2.931-.312-.258-.064.296.553 1.231m-96.985.9c-1.344.431.108.431 1.8 0 1.078-.274 1.098-.306.2-.313-.55-.004-1.45.137-2 .313m-8.1 2.827c-.825.436-1.5.881-1.5.991 0 .178 3.159-1.299 3.567-1.667.46-.417-.742-.023-2.067.676m28.133-.676c.409.37 3.567 1.844 3.567 1.665 0-.227-3.019-1.816-3.451-1.816-.155 0-.207.068-.116.151m-32.689 3.58c-1.289.951-2.614 2.066-2.944 2.476s.393-.054 1.606-1.031 2.653-2.082 3.2-2.455.879-.688.738-.7-1.311.758-2.6 1.71M239.6 119.4c1.417 1.43 2.667 2.6 2.777 2.6s-.96-1.17-2.377-2.6-2.667-2.6-2.777-2.6.96 1.17 2.377 2.6m-207 .6c-.341.66-.531 1.2-.421 1.2s.48-.54.821-1.2.531-1.2.421-1.2-.48.54-.821 1.2m158.978 1.1l-1.378 1.5 1.5-1.378c.825-.759 1.5-1.434 1.5-1.5 0-.306-.338-.018-1.622 1.378M30.8 123.2c-.449.88-.726 1.6-.616 1.6s.567-.72 1.016-1.6.726-1.6.616-1.6-.567.72-1.016 1.6m158.493.7c-1.036 1.496-1.372 2.1-1.17 2.1.094 0 .647-.72 1.23-1.6 1.183-1.788 1.131-2.221-.06-.5m128.193 4.282c1.476 2.961 2.746 5.32 2.822 5.243.177-.177-5.044-10.625-5.309-10.625-.107 0 1.012 2.422 2.487 5.382m3.342 6.818c0 .22.258.85.572 1.4s.572.82.572.6-.258-.85-.572-1.4-.572-.82-.572-.6m-71.527 4c.004.88.086 1.193.182.695s.092-1.217-.008-1.6-.179.025-.174.905m-226.036.017c-.67 1.471-.542 1.785.182.448.339-.625.541-1.211.449-1.302s-.375.293-.631.854m299.935 1.974c0 .498-1.217.609-7.667.7-5.824.083-7.692.232-7.77.619-.057.28-.011.326.1.1.129-.259 3.065-.41 7.97-.41 7.5 0 7.767-.027 7.767-.8 0-.44-.09-.8-.2-.8s-.2.266-.2.591m-300.637.299c.082.402 4.423.552 20.532.71 11.236.11 20.345.065 20.243-.1s-9.25-.3-20.328-.3c-13.358 0-20.212-.138-20.347-.41-.111-.225-.157-.18-.1.1m93.299.41c.102.165 15.284.3 33.738.3l33.738-.3c.102-.165-15.08-.3-33.738-.3l-33.738.3m134.065-.013c.158.158 5.271.338 11.361.4s10.944-.016 10.785-.174-5.271-.338-11.361-.4-10.944.016-10.785.174m21.673 1.446c0 .344-2.832.467-10.776.467-5.927 0-10.86.135-10.963.3-.276.446 21.457.142 21.905-.306.209-.209.258-.504.107-.654s-.273-.063-.273.193m36.661.567c.103.165 3.767.3 8.143.3 7.155 0 7.997.07 8.364.7.224.385.413.497.42.249.03-1.115-1.264-1.319-9.071-1.432-4.423-.065-7.958.018-7.856.183m-275.733.2h21.2c5.76-.063.932-.114-10.728-.114l-10.472.114m83.334 0c-.102.165 15.08.3 33.738.3l33.738-.3c-.102-.165-15.284-.3-33.738-.3l-33.738.3m133.431 2.9c0 .77.082 1.085.183.7s.1-1.015 0-1.4-.183-.07-.183.7m-231.064 6.229c-.148.586-.191 1.143-.097 1.237s.292-.308.439-.895.191-1.143.097-1.237-.292.308-.439.895M186 155.747c0 .433 1.988 4.253 2.213 4.253.11 0-.274-.945-.854-2.1-1.116-2.221-1.359-2.606-1.359-2.153m59.878 2.058c-.366.767-.583 1.395-.482 1.395.274 0 1.488-2.449 1.305-2.632-.087-.087-.457.47-.823 1.237m-229.249.824c-.148.586-.191 1.143-.097 1.237s.292-.308.439-.895.191-1.143.097-1.237-.292.308-.439.895m313.039 1.771c.02 1.039.65 2.746.664 1.8.006-.44-.143-1.16-.332-1.6-.211-.49-.339-.568-.332-.2m-89.442 5.118c-2.645 2.873-2.923 3.258-1.069 1.482 2.2-2.108 5.15-5.432 4.777-5.382-.074.01-1.742 1.765-3.708 3.9m-46.826 1.136l1.799 1.549 1.398 1.197-.998-1.137c-.55-.625-1.359-1.322-1.799-1.549s-.62-.253-.4-.06m5.8 4.301c0 .276 2.821 1.957 2.994 1.784.084-.084-.556-.559-1.421-1.057s-1.573-.825-1.573-.727M13.293 174.8c0 .77.082 1.085.183.7s.1-1.015 0-1.4-.183-.07-.183.7m200.985 1.086c.678.126.914.499 1.034 1.638l.156 1.476-.034-1.6c-.03-1.42-.147-1.604-1.034-1.639-.825-.031-.846-.01-.122.125m3.504.216c-.556 1.449.03 28.888.618 28.931.345.025.388-.027.1-.124-.388-.13-.5-3.393-.5-14.513v-14.345l1.3-.162 1.3-.161-1.313-.064c-.736-.036-1.397.156-1.505.438M12.901 177.8c.004.88.086 1.193.182.695s.092-1.217-.008-1.6-.179.025-.174.905m320.4 1.6c.004.88.086 1.193.182.695s.092-1.217-.008-1.6-.179.025-.174.905m-117.928 10.8c0 5.5.057 7.805.126 5.123a241.55 241.55 0 0 0 0-10c-.069-2.818-.125-.623-.126 4.877m118.341-6.8c.003 1.1.081 1.503.173.895s.09-1.509-.005-2-.171.005-.168 1.105m.379 3.4c0 .77.082 1.085.183.7s.1-1.015 0-1.4-.183-.07-.183.7M11.731 189c.002 1.54.074 2.121.161 1.291s.085-2.09-.003-2.8-.16-.031-.158 1.509m322.84 11.4c0 4.95.057 6.975.128 4.5s.07-6.525 0-9-.128-.45-.128 4.5m-323.206 0c0 3.85.06 5.425.133 3.5a111.9 111.9 0 0 0 0-7c-.073-1.925-.133-.35-.133 3.5m203.902 2.471c-.05 1.409-.24 1.915-.767 2.053-.656.172-.655.186.013.23.907.059 1.181-.672.981-2.612-.154-1.488-.162-1.476-.227.329M209.6 205.6c-1.344.431.108.431 1.8 0 1.078-.274 1.098-.306.2-.313-.55-.004-1.45.137-2 .313m10.833-.251c.092.082 1.067.252 2.167.379 1.349.156 1.674.121 1-.108-.999-.34-3.482-.552-3.167-.271m-18.933 3.078c-.825.436-1.5.881-1.5.991 0 .178 3.159-1.299 3.567-1.667.46-.417-.742-.023-2.067.676m28.933-.278c.412.368 2.767 1.451 2.767 1.272 0-.231-2.218-1.421-2.647-1.421-.157 0-.211.067-.12.149M11.724 211.8c.002 1.32.077 1.812.166 1.093s.087-1.799-.004-2.4-.164-.013-.162 1.307m185.22-.469c-1.289.951-2.614 2.066-2.944 2.476s.393-.054 1.606-1.031 2.653-2.082 3.2-2.455.879-.688.738-.7-1.311.758-2.6 1.71M239.8 214.8c1.306 1.32 2.465 2.4 2.575 2.4s-.869-1.08-2.175-2.4-2.465-2.4-2.575-2.4.869 1.08 2.175 2.4m-48.222 1.5l-1.378 1.5 1.5-1.378c1.396-1.284 1.684-1.622 1.378-1.622-.066 0-.741.675-1.5 1.5m142.136 1.1c.003 1.1.081 1.503.173.895s.09-1.509-.005-2-.171.005-.168 1.105m-144.421 1.7c-1.036 1.496-1.372 2.1-1.17 2.1.094 0 .647-.72 1.23-1.6 1.183-1.788 1.131-2.221-.06-.5m144.008 2.7c.004.88.086 1.193.182.695s.092-1.217-.008-1.6-.179.025-.174.905m-320.4 1.2c.004.88.086 1.193.182.695s.092-1.217-.008-1.6-.179.025-.174.905m.392 3c0 .77.082 1.085.183.7s.1-1.015 0-1.4-.183-.07-.183.7m236.008 8.2c.004.88.086 1.193.182.695s.092-1.217-.008-1.6-.179.025-.174.905m-83.701 2.594l-17.8.206v1 1l17.862.2c9.824.11 17.779.065 17.676-.1s-8.095-.3-17.762-.3c-17.309 0-17.576-.012-17.576-.8s.267-.8 17.576-.8c11.287 0 17.665-.143 17.824-.4.136-.22.192-.358.124-.306s-8.134.186-17.924.3m84.262.106c.102.165 18.254.3 40.338.3l40.338-.3c.102-.165-18.05-.3-40.338-.3l-40.338.3m-201.562.199c32.166.105 32.5.114 32.5.903s-.298.798-32.213.798c-34.857 0-32.955-.13-32.188 2.2.376 1.142.385 1.128.181-.298l-.215-1.497 32.317-.103L81 239v-1-1l-32.6-.004-32.6-.003 32.5.106m201.563 1.999c-.103.166 17.783.255 39.747.198 39.812-.103 39.934-.101 40.115.706.152.681.173.665.128-.096L329.8 239l-39.875-.102c-21.932-.056-39.959.034-40.062.2m-.57 2.902c0 .77.082 1.085.183.7s.1-1.015 0-1.4-.183-.07-.183.7m-64.825 4.2c-.006.44.143 1.16.332 1.6.438 1.019.438-.032 0-1.4-.257-.804-.323-.843-.332-.2m1.492 4.695c.576 1.516 2.022 4.305 2.231 4.305s-2.004-4.746-2.385-5.127c-.141-.141-.071.229.154.822m60.121 1.714c-.479.985-.787 1.791-.684 1.791.271 0 1.887-3.249 1.706-3.43-.084-.084-.544.654-1.022 1.639m-2.296 3.891c-.617.935-.865 1.489-.553 1.231.601-.497 2.132-2.931 1.844-2.931-.093 0-.674.765-1.291 1.7m-52.036 3.616c1.071 1.256 2.033 2.284 2.137 2.284.268 0-3.063-3.939-3.622-4.283-.255-.156.413.743 1.485 1.999m49.655-.52c-.63.658-1.069 1.26-.975 1.338s.684-.46 1.31-1.196c1.415-1.661 1.206-1.75-.335-.142m-3.204 3.12c-.88.823-2.14 1.908-2.8 2.412-.697.532-.835.74-.33.496.862-.416 5.314-4.389 4.93-4.399-.11-.003-.92.668-1.8 1.491m83.465 1.101c-.67 1.471-.542 1.785.182.448.339-.625.541-1.211.449-1.302s-.375.293-.631.854m-1.793 4.002c-.94 1.97-.808 2.305.175.443.446-.846.74-1.608.654-1.695s-.46.477-.829 1.252M203.6 268.6c.55.314 1.18.572 1.4.572s-.05-.258-.6-.572-1.18-.572-1.4-.572.05.258.6.572m25.2 0c-.55.314-.82.572-.6.572s.85-.258 1.4-.572.82-.572.6-.572-.85.258-1.4.572m-201.6 1.949c0 .432 1.589 3.451 1.816 3.451.11 0-.186-.765-.657-1.7-.927-1.839-1.159-2.189-1.159-1.751m186.599.531c.659.106 1.348.401 1.53.656.224.313.28.269.171-.136-.1-.369-.688-.622-1.531-.656-1.254-.052-1.268-.041-.17.136m3.985.22c-.104.275-.143 19.4-.085 42.5l.105 42 .098-42.275.098-42.274 1.3-.162 1.3-.161-1.313-.064c-.734-.036-1.396.156-1.503.436m-104.104.38c-.36.36-.457 4.334-.387 15.9l.093 15.42.207-15.6.207-15.6.88.03c.484.016.789-.119.677-.3-.296-.479-1.123-.404-1.677.15m101.712 42.92l.108 20.33v-40.4c-.059-11.181-.108-2.15-.108 20.07M315.4 276.8c-.341.66-.531 1.2-.421 1.2s.48-.54.821-1.2.531-1.2.421-1.2-.48.54-.821 1.2M31 278c.341.66.711 1.2.821 1.2s-.08-.54-.421-1.2-.711-1.2-.821-1.2.08.54.421 1.2m94.3 5.876c.385.1 1.015.1 1.4 0s.07-.183-.7-.183-1.085.082-.7.183m9.863 2.76c.969.843 2.274 2.34 2.9 3.327s1.137 1.618 1.137 1.404c0-.958-3.521-5.076-5-5.848-.44-.229-.007.273.963 1.117m-18.028 1.772c-.789.884-1.322 1.673-1.185 1.755s.841-.643 1.563-1.608c1.636-2.188 1.492-2.244-.378-.147m190.702 1.092c-.812 1.265-1.058 1.808-.547 1.206 1.01-1.188 2.457-3.506 2.189-3.506-.091 0-.83 1.035-1.642 2.3m-269.991-.2c.84 1.432 3.409 5.1 3.572 5.1.104 0-.649-1.26-1.673-2.8s-1.937-2.8-2.027-2.8-.033.225.128.5m264.379 8.2c-1.249 1.705-1.743 2.503-1.097 1.774 1.4-1.582 3.795-4.874 3.545-4.874-.097 0-1.198 1.395-2.448 3.1m-259.834-1.512c.466.653 1.051 1.314 1.3 1.468s-.05-.38-.666-1.188c-1.337-1.753-1.841-1.976-.634-.28m96.889 4.292c-.592 1.929-.305 2.215.32.32.264-.799.402-1.531.307-1.626s-.377.492-.627 1.306M48.4 303.6c.921 1.1 1.764 2 1.874 2s-.553-.9-1.474-2-1.764-2-1.874-2 .553.9 1.474 2m69.109 1.235c1.031 1.119 2.167 2.192 2.524 2.383s-.399-.725-1.682-2.035c-2.848-2.912-3.421-3.148-.842-.348m-4.121 21.965l.112 11.9v-23.8c-.062-6.545-.112-1.19-.112 11.9m181.39-20.1l-1.378 1.5 1.5-1.378c1.396-1.284 1.684-1.622 1.378-1.622-.066 0-.741.675-1.5 1.5m-242.978.9c.859.88 1.652 1.6 1.762 1.6s-.503-.72-1.362-1.6-1.652-1.6-1.762-1.6.503.72 1.362 1.6m81.028.056c-1.194.629-1.952 1.144-1.684 1.144.662 0 3.541-1.49 3.852-1.994.138-.223.196-.381.128-.35a242.88 242.88 0 0 0-2.296 1.2M123.4 308.8c.44.189 1.16.338 1.6.332.643-.009.604-.075-.2-.332-1.368-.438-2.419-.438-1.4 0m166.591 3.1l-3.391 3.5 3.5-3.391c3.251-3.15 3.682-3.609 3.391-3.609-.06 0-1.635 1.575-3.5 3.5M57 313.14a178.93 178.93 0 0 0 7.2 6.963c4.208 3.792 2.997 2.552-5-5.118-3.668-3.519-4.477-4.197-2.2-1.845m226.588 5.16L281 321l2.7-2.588c1.485-1.424 2.7-2.639 2.7-2.7 0-.295-.407.08-2.812 2.588m-4.41 4l-1.378 1.5 1.5-1.378c.825-.759 1.5-1.434 1.5-1.5 0-.306-.338-.018-1.622 1.378m-206.496 4.941c.543.674 4.118 3.305 4.118 3.032 0-.097-1.035-.954-2.3-1.903s-2.083-1.457-1.818-1.129m195.518 3.794l-1.2 1.031 1.3-.86c.715-.473 1.3-.938 1.3-1.033 0-.3-.169-.195-1.4.862m-190.6-.073c0 .11.81.757 1.8 1.438s1.8 1.148 1.8 1.038-.81-.757-1.8-1.438-1.8-1.148-1.8-1.038m187.8 2.073l-1.2 1.031 1.3-.86c.715-.473 1.3-.938 1.3-1.033 0-.3-.169-.195-1.4.862M87 337.407c.44.359 1.16.828 1.6 1.044l.8.393-.8-.651c-.44-.359-1.16-.828-1.6-1.044l-.8-.393.8.651m163.3 4.822c-1.495.811-1.404 1.149.1.371.66-.341 1.2-.706 1.2-.81 0-.258-.043-.243-1.3.439m-155.1-.045c0 .11.72.567 1.6 1.016s1.6.726 1.6.616-.72-.567-1.6-1.016-1.6-.726-1.6-.616m10 5.216c.99.53 1.98.964 2.2.964s-.41-.434-1.4-.964-1.98-.964-2.2-.964.41.434 1.4.964m3.6 1.6c.55.314 1.18.572 1.4.572s-.05-.258-.6-.572-1.18-.572-1.4-.572.05.258.6.572m117.4 4.014c-1 .482-1.034.537-.2.334 1.133-.277 2.407-.927 1.8-.918-.22.003-.94.266-1.6.584M123 354.4c.44.189 1.07.344 1.4.344.378 0 .304-.127-.2-.344-.44-.189-1.07-.344-1.4-.344-.378 0-.304.127.2.344m98.8 0c-.504.217-.578.344-.2.344.33 0 .96-.155 1.4-.344.504-.217.578-.344.2-.344-.33 0-.96.155-1.4.344m-89.2 2.8c.44.189 1.16.338 1.6.332.643-.009.604-.075-.2-.332-1.368-.438-2.419-.438-1.4 0m79.4 0c-.804.257-.843.323-.2.332.44.006 1.16-.143 1.6-.332 1.019-.438-.032-.438-1.4 0m-62.095 3.483c.497.096 1.217.092 1.6-.008s-.025-.179-.905-.174-1.193.086-.695.182m44.8 0c.497.096 1.217.092 1.6-.008s-.025-.179-.905-.174-1.193.086-.695.182m-41.4.404c.609.092 1.509.09 2-.005s-.005-.171-1.105-.168-1.503.081-.895.173m37.795-.005c.495.096 1.305.096 1.8 0s.09-.173-.9-.173-1.395.078-.9.173m-34.2.394c.385.1 1.015.1 1.4 0s.07-.183-.7-.183-1.085.082-.7.183m30.8 0c.385.1 1.015.1 1.4 0s.07-.183-.7-.183-1.085.082-.7.183m-24.8.4c.385.1 1.015.1 1.4 0s.07-.183-.7-.183-1.085.082-.7.183m19.005.007c.497.096 1.217.092 1.6-.008s-.025-.179-.905-.174-1.193.086-.695.182m-11.823.413c1.476.077 3.996.077 5.6.001s.398-.139-2.682-.139-4.393.061-2.918.138" fill="#756243"/><path d="M239.978 166.3l-1.378 1.5 1.5-1.378c1.396-1.284 1.684-1.622 1.378-1.622-.066 0-.741.675-1.5 1.5M12.493 218.4c0 .77.082 1.085.183.7s.1-1.015 0-1.4-.183-.07-.183.7m127.621 78.2c.003 1.1.081 1.503.173.895s.09-1.509-.005-2-.171.005-.168 1.105M126.3 309.482c.495.096 1.305.096 1.8 0s.09-.173-.9-.173-1.395.078-.9.173m59 51.994c.385.1 1.015.1 1.4 0s.07-.183-.7-.183-1.085.082-.7.183m-6.195.407c.497.096 1.217.092 1.6-.008s-.025-.179-.905-.174-1.193.086-.695.182" fill="#7b6c43"/></svg>